<svg width="64" height="64" viewBox="0 0 64 64" xmlns="http://www.w3.org/2000/svg">
  <defs>
    <linearGradient id="folderGradient" x1="0%" y1="0%" x2="100%" y2="100%">
      <stop offset="0%" style="stop-color:#4A90E2;stop-opacity:1" />
      <stop offset="100%" style="stop-color:#357ABD;stop-opacity:1" />
    </linearGradient>
    <linearGradient id="paperGradient" x1="0%" y1="0%" x2="100%" y2="100%">
      <stop offset="0%" style="stop-color:#F8F9FA;stop-opacity:1" />
      <stop offset="100%" style="stop-color:#E9ECEF;stop-opacity:1" />
    </linearGradient>
  </defs>

  <!-- Main folder -->
  <path d="M8 16 L8 48 C8 52.4 11.6 56 16 56 L48 56 C52.4 56 56 52.4 56 48 L56 24 C56 19.6 52.4 16 48 16 L32 16 L26 10 L16 10 C11.6 10 8 13.6 8 18 Z" fill="url(#folderGradient)" stroke="#2C5F8A" stroke-width="1"/>

  <!-- Document pages -->
  <rect x="18" y="22" width="16" height="22" fill="url(#paperGradient)" stroke="#ADB5BD" stroke-width="0.5" rx="1"/>
  <rect x="20" y="20" width="16" height="22" fill="url(#paperGradient)" stroke="#ADB5BD" stroke-width="0.5" rx="1"/>
  <rect x="22" y="18" width="16" height="22" fill="url(#paperGradient)" stroke="#ADB5BD" stroke-width="0.5" rx="1"/>

  <!-- Document lines -->
  <line x1="25" y1="23" x2="35" y2="23" stroke="#6C757D" stroke-width="0.5"/>
  <line x1="25" y1="26" x2="33" y2="26" stroke="#6C757D" stroke-width="0.5"/>
  <line x1="25" y1="29" x2="35" y2="29" stroke="#6C757D" stroke-width="0.5"/>
  <line x1="25" y1="32" x2="31" y2="32" stroke="#6C757D" stroke-width="0.5"/>

  <!-- Tracking icon -->
  <circle cx="44" cy="32" r="8" fill="#28A745" stroke="#1E7E34" stroke-width="1"/>
  <path d="M40 32 L42.5 34.5 L48 29" stroke="white" stroke-width="2" fill="none" stroke-linecap="round" stroke-linejoin="round"/>
</svg>